Coordinates
version=1
nRows=8
nColumns=46
inDegrees=yes

Units are S.I. units (second, meters, Newtons, ...)
Angles are in degrees.

endheader
time	pelvis_tilt	pelvis_list	pelvis_rotation	pelvis_tx	pelvis_ty	pelvis_tz	bb_angle	bb_tx	bb_ty	bb_tz	hip_flexion_r	hip_adduction_r	hip_rotation_r	knee_angle_r	knee_angle_r_beta	ankle_angle_r	subtalar_angle_r	mtp_angle_r	crank_angle_r	hip_flexion_l	hip_adduction_l	hip_rotation_l	knee_angle_l	knee_angle_l_beta	ankle_angle_l	subtalar_angle_l	mtp_angle_l	crank_angle_l	lumbar_extension	lumbar_bending	lumbar_rotation	arm_flex_r	arm_add_r	arm_rot_r	elbow_flex_r	pro_sup_r	wrist_flex_r	wrist_dev_r	arm_flex_l	arm_add_l	arm_rot_l	elbow_flex_l	pro_sup_l	wrist_flex_l	wrist_dev_l
      5.00500000	    -12.22403319	     -4.04295142	      6.50804854	      0.15504360	      1.09131518	     -0.24947517	      0.00000000	      0.50000000	      0.00000000	      0.25000000	     85.28630951	     -3.57862367	      1.34841031	    119.67481913	      2.08871963	    -12.89223590	    -20.66346717	      0.00000000	      0.00000000	     42.21155327	     -3.30124502	      5.42059780	     36.27411128	      0.63310268	     -7.81571990	     -9.07366714	      0.00000000	      0.00000000	    -70.04536449	      4.46231066	      3.60682323	     75.48036196	    -19.68562817	     18.43998059	     73.21024095	     49.40236857	      0.00000000	      0.00000000	     83.53165206	    -11.75494456	     30.61255935	     67.55407448	     45.56294563	      0.00000000	      0.00000000
      5.01000000	    -12.19984664	     -3.94355984	      6.17163361	      0.15514188	      1.09194313	     -0.25024329	      0.00000000	      0.50000000	      0.00000000	      0.25000000	     86.35347750	     -3.71790766	      1.46204318	    120.12826120	      2.09663368	    -11.67571657	    -20.36169956	      0.00000000	      0.00000000	     41.26514608	     -3.62267786	      4.65287236	     35.88981305	      0.62639541	     -7.94139104	     -8.42286598	      0.00000000	      0.00000000	    -70.05774803	      4.68564146	      3.15242938	     76.41879989	    -18.54944386	     19.60239067	     71.68535914	     49.38771225	      0.00000000	      0.00000000	     82.81175701	    -12.66910108	     29.43601857	     68.47959456	     45.72373956	      0.00000000	      0.00000000
      5.01500000	    -12.24018517	     -3.91775545	      5.95275108	      0.15512762	      1.09251789	     -0.25115101	      0.00000000	      0.50000000	      0.00000000	      0.25000000	     87.43192740	     -3.83909115	      1.47811740	    120.38782830	      2.10116398	    -10.97267095	    -20.71284754	      0.00000000	      0.00000000	     40.51899633	     -3.86479754	      4.15453857	     35.68911665	      0.62289259	     -8.16274115	     -8.11921744	      0.00000000	      0.00000000	    -70.06894877	      4.89784076	      3.32375751	     76.67258902	    -18.36231514	     19.68563146	     71.75115806	     49.41525617	      0.00000000	      0.00000000	     82.65177453	    -12.83279666	     29.38551046	     68.38560384	     45.71592101	      0.00000000	      0.00000000
      5.02000000	    -12.24521664	     -3.83355497	      5.59568201	      0.15511192	      1.09330921	     -0.25180657	      0.00000000	      0.50000000	      0.00000000	      0.25000000	     88.39350097	     -3.83537620	      1.63480019	    120.46313343	      2.10247831	    -10.16440338	    -20.45065471	      0.00000000	      0.00000000	     39.79644937	     -4.17967325	      3.45615554	     35.66987533	      0.62255677	     -8.19040215	     -7.52872352	      0.00000000	      0.00000000	    -70.11948356	      5.00644000	      3.30910768	     77.08574664	    -17.87895220	     20.13699092	     71.44928758	     49.46079878	      0.00000000	      0.00000000	     82.43782657	    -13.25318035	     28.99306922	     68.45153839	     45.74381466	      0.00000000	      0.00000000
      5.02500000	    -12.26485639	     -3.79542789	      5.40650399	      0.15485079	      1.09414062	     -0.25274006	      0.00000000	      0.50000000	      0.00000000	      0.25000000	     89.29193285	     -4.03305480	      1.69818476	    120.32022445	      2.09998407	     -9.73511300	    -20.56646694	      0.00000000	      0.00000000	     39.23141602	     -4.35802738	      3.06401162	     35.80441572	      0.62490494	     -8.41686648	     -7.38122259	      0.00000000	      0.00000000	    -70.20589604	      5.23162072	      3.50295103	     77.40480815	    -17.72173067	     20.19699943	     71.48937752	     49.47708615	      0.00000000	      0.00000000	     82.36449494	    -13.39685640	     28.91429748	     68.39294361	     45.73583453	      0.00000000	      0.00000000
      5.03000000	    -12.30297412	     -3.81887702	      5.06999732	      0.15458834	      1.09511641	     -0.25331054	      0.00000000	      0.50000000	      0.00000000	      0.25000000	     90.05632314	     -3.98029559	      1.73891992	    119.94811409	      2.09348952	     -9.07115124	    -20.18255232	      0.00000000	      0.00000000	     38.84324413	     -4.70351283	      2.69661824	     36.29965683	      0.63354853	     -8.52905631	     -6.93641026	      0.00000000	      0.00000000	    -70.29982033	      5.39604582	      3.57717747	     77.92331147	    -17.24307046	     20.66408618	     71.22987392	     49.50971324	      0.00000000	      0.00000000	     82.23037192	    -13.83853534	     28.50247976	     68.42372573	     45.74150490	      0.00000000	      0.00000000
      5.03500000	    -12.24648399	     -3.81318428	      4.68481270	      0.15442151	      1.09629360	     -0.25382637	      0.00000000	      0.50000000	      0.00000000	      0.25000000	     90.60151019	     -3.88453467	      1.78440876	    119.42431540	      2.08434751	     -8.50727310	    -19.88994863	      0.00000000	      0.00000000	     38.39470307	     -5.03318995	      2.21815731	     36.85123870	      0.64317545	     -8.61399931	     -6.83647050	      0.00000000	      0.00000000	    -70.50860298	      5.55340358	      3.51993762	     78.72907057	    -16.56199764	     21.37278467	     70.32673452	     49.54637098	      0.00000000	      0.00000000	     81.83723281	    -14.54891431	     27.87037204	     69.08827440	     45.93864814	      0.00000000	      0.00000000
      5.04000000	    -12.24547685	     -3.66508480	      4.47100238	      0.15424520	      1.09763939	     -0.25473375	      0.00000000	      0.50000000	      0.00000000	      0.25000000	     91.07602111	     -4.06674302	      1.96005646	    118.70022652	      2.07170978	     -8.27923079	    -19.90563728	      0.00000000	      0.00000000	     37.97124834	     -4.98372361	      2.15179082	     37.31148599	      0.65120828	     -8.70002511	     -6.86244917	      0.00000000	      0.00000000	    -70.65492747	      5.62108313	      3.65033705	     78.79195956	    -16.50429728	     21.38498483	     70.34576141	     49.55127906	      0.00000000	      0.00000000	     81.82052197	    -14.60690341	     27.85052157	     69.05876879	     45.93409976	      0.00000000	      0.00000000
